<svg width="632" height="93" viewBox="0 0 632 93" fill="none" xmlns="http://www.w3.org/2000/svg">
<path d="M62.1503 65.832C59.6756 65.832 57.3076 65.5547 55.0463 65C52.8276 64.4453 50.9076 63.6987 49.2863 62.76L50.0543 54.184C51.9743 55.3787 53.9796 56.3173 56.0703 57C58.2036 57.64 60.1663 57.96 61.9583 57.96C64.0063 57.96 65.6703 57.5333 66.9503 56.68C68.2303 55.8267 68.8703 54.696 68.8703 53.288C68.8703 52.136 68.4436 51.2613 67.5903 50.664C66.7369 50.024 65.3929 49.3413 63.5583 48.616L62.0223 47.976C61.8089 47.8907 61.5743 47.8053 61.3183 47.72C61.0623 47.592 60.7636 47.464 60.4223 47.336C58.0329 46.3547 56.1129 45.4373 54.6623 44.584C53.2116 43.688 51.9529 42.4507 50.8863 40.872C49.8623 39.2933 49.3503 37.2453 49.3503 34.728C49.3503 30.632 50.7369 27.4107 53.5103 25.064C56.2836 22.7173 60.1449 21.544 65.0943 21.544C68.8489 21.544 72.6889 22.312 76.6143 23.848L75.2063 32.296C73.6276 31.4 71.9209 30.696 70.0863 30.184C68.2943 29.672 66.5876 29.416 64.9663 29.416C62.9609 29.416 61.4036 29.8213 60.2943 30.632C59.1849 31.4 58.6303 32.4453 58.6303 33.768C58.6303 34.92 59.0143 35.816 59.7823 36.456C60.5503 37.096 61.7876 37.7787 63.4943 38.504L66.1183 39.528C68.5929 40.4667 70.6409 41.384 72.2623 42.28C73.8836 43.176 75.2703 44.4773 76.4223 46.184C77.5743 47.848 78.1503 50.024 78.1503 52.712C78.1503 56.8507 76.7423 60.072 73.9263 62.376C71.1103 64.68 67.1849 65.832 62.1503 65.832ZM121.415 65.832C114.589 65.832 109.255 63.9973 105.415 60.328C101.575 56.6587 99.6553 51.4747 99.6553 44.776C99.6553 40.2107 100.551 36.1787 102.343 32.68C104.178 29.1813 106.759 26.4933 110.087 24.616C113.415 22.696 117.255 21.736 121.607 21.736C125.149 21.736 128.562 22.376 131.847 23.656L130.119 31.912C127.218 30.5893 124.402 29.928 121.671 29.928C117.789 29.928 114.717 31.208 112.455 33.768C110.194 36.2853 109.063 39.656 109.063 43.88C109.063 48.1893 110.258 51.5387 112.647 53.928C115.037 56.3173 118.343 57.512 122.567 57.512C125.341 57.512 128.029 57.064 130.631 56.168L132.039 64.04C128.925 65.2347 125.383 65.832 121.415 65.832ZM174.025 65.832C169.844 65.832 166.153 64.9147 162.953 63.08C159.753 61.2453 157.257 58.664 155.465 55.336C153.716 52.008 152.841 48.1893 152.841 43.88C152.841 39.528 153.716 35.688 155.465 32.36C157.215 29.032 159.689 26.4507 162.889 24.616C166.089 22.7813 169.801 21.864 174.025 21.864C178.207 21.864 181.897 22.7813 185.097 24.616C188.297 26.408 190.772 28.9467 192.521 32.232C194.271 35.5173 195.145 39.3147 195.145 43.624C195.145 48.0187 194.271 51.9013 192.521 55.272C190.772 58.6 188.297 61.2027 185.097 63.08C181.897 64.9147 178.207 65.832 174.025 65.832ZM174.025 57.704C177.524 57.704 180.319 56.4453 182.409 53.928C184.543 51.4107 185.609 48.0613 185.609 43.88C185.609 41.1493 185.119 38.7387 184.137 36.648C183.199 34.5147 181.833 32.8933 180.041 31.784C178.292 30.632 176.287 30.056 174.025 30.056C171.764 30.056 169.737 30.632 167.945 31.784C166.196 32.8933 164.831 34.5147 163.849 36.648C162.911 38.7387 162.441 41.1493 162.441 43.88C162.441 46.6107 162.911 49.0213 163.849 51.112C164.831 53.2027 166.196 54.824 167.945 55.976C169.695 57.128 171.721 57.704 174.025 57.704ZM217.943 22.376C219.223 22.3333 221.612 22.312 225.111 22.312C228.652 22.312 231.063 22.3333 232.343 22.376C237.207 22.5467 240.833 23.7413 243.223 25.96C245.612 28.136 246.807 31.08 246.807 34.792C246.807 37.9493 245.996 40.6373 244.375 42.856C242.796 45.032 240.577 46.4613 237.719 47.144C238.615 47.8693 239.532 48.872 240.471 50.152C241.409 51.3893 242.711 53.3307 244.375 55.976C246.124 58.7493 247.895 61.7573 249.687 65H238.935L231.703 51.56C230.935 50.152 230.231 49.2773 229.591 48.936C228.993 48.552 228.076 48.36 226.839 48.36V65H217.943V22.376ZM230.807 41.256C232.983 41.256 234.689 40.7013 235.927 39.592C237.207 38.4827 237.847 36.9893 237.847 35.112C237.847 33.4053 237.292 32.104 236.183 31.208C235.073 30.312 233.452 29.864 231.319 29.864H226.839V41.256H230.807ZM270.011 22.376H295.931V30.44H279.163V38.952H293.051V46.76H279.163V56.936H295.931V65H270.011V22.376ZM365.574 22.376H379.846C383.984 22.376 387.248 23.3787 389.638 25.384C392.07 27.3467 393.286 30.0347 393.286 33.448C393.286 37.3307 391.6 40.3173 388.23 42.408C392.71 44.2 394.95 47.3573 394.95 51.88C394.95 54.44 394.31 56.7227 393.03 58.728C391.75 60.6907 389.958 62.2267 387.654 63.336C385.392 64.4453 382.832 65 379.974 65H365.574V22.376ZM377.67 39.72C379.803 39.72 381.446 39.2293 382.598 38.248C383.792 37.2667 384.39 35.9013 384.39 34.152C384.39 30.9947 382.427 29.416 378.502 29.416H374.47V39.72H377.67ZM378.566 57.896C380.87 57.896 382.662 57.3627 383.942 56.296C385.264 55.2293 385.926 53.8 385.926 52.008C385.926 50.3867 385.371 49.128 384.262 48.232C383.152 47.336 381.552 46.888 379.462 46.888H374.47V57.896H378.566ZM418.011 22.376H427.291V56.936H442.651V65H418.011V22.376ZM465.586 22.376H474.866V65H465.586V22.376ZM509.412 30.44H497.764V22.376H530.276V30.44H518.756V65H509.412V30.44ZM551.724 58.024L572.076 30.44H552.3V22.376H583.404V29.672L563.18 56.936H583.404V65H551.724V58.024Z" fill="#FAFAF9"/>
<path d="M330.253 55.72C328.717 55.72 327.287 55.336 325.965 54.568C324.642 53.8 323.597 52.7547 322.829 51.432C322.061 50.1093 321.677 48.68 321.677 47.144C321.677 45.608 322.061 44.2 322.829 42.92C323.597 41.5973 324.642 40.552 325.965 39.784C327.287 39.016 328.717 38.632 330.253 38.632C331.746 38.632 333.154 39.016 334.477 39.784C335.799 40.552 336.845 41.5973 337.613 42.92C338.381 44.2427 338.765 45.6507 338.765 47.144C338.765 48.68 338.381 50.1093 337.613 51.432C336.845 52.7547 335.799 53.8 334.477 54.568C333.197 55.336 331.789 55.72 330.253 55.72Z" fill="#FDE047"/>
<path d="M598.116 56H623.876L611.012 33.696L598.116 56Z" fill="#16A34A"/>
<path d="M22.0124 56L34.8764 33.696H9.11638L22.0124 56Z" fill="#DC2626"/>
</svg>
