<svg width="632" height="93" viewBox="0 0 632 93" fill="none" xmlns="http://www.w3.org/2000/svg">
<path d="M19.903 65L32.767 42.696H7.007L19.903 65Z" fill="#DC2626"/>
<path d="M58.1503 65.832C55.6756 65.832 53.3076 65.5547 51.0463 65C48.8276 64.4453 46.9076 63.6987 45.2863 62.76L46.0543 54.184C47.9743 55.3787 49.9796 56.3173 52.0703 57C54.2036 57.64 56.1663 57.96 57.9583 57.96C60.0063 57.96 61.6703 57.5333 62.9503 56.68C64.2303 55.8267 64.8703 54.696 64.8703 53.288C64.8703 52.136 64.4436 51.2613 63.5903 50.664C62.7369 50.024 61.3929 49.3413 59.5583 48.616L58.0223 47.976C57.8089 47.8907 57.5743 47.8053 57.3183 47.72C57.0623 47.592 56.7636 47.464 56.4223 47.336C54.0329 46.3547 52.1129 45.4373 50.6623 44.584C49.2116 43.688 47.9529 42.4507 46.8863 40.872C45.8623 39.2933 45.3503 37.2453 45.3503 34.728C45.3503 30.632 46.7369 27.4107 49.5103 25.064C52.2836 22.7173 56.1449 21.544 61.0943 21.544C64.8489 21.544 68.6889 22.312 72.6143 23.848L71.2063 32.296C69.6276 31.4 67.9209 30.696 66.0863 30.184C64.2943 29.672 62.5876 29.416 60.9663 29.416C58.9609 29.416 57.4036 29.8213 56.2943 30.632C55.1849 31.4 54.6303 32.4453 54.6303 33.768C54.6303 34.92 55.0143 35.816 55.7823 36.456C56.5503 37.096 57.7876 37.7787 59.4943 38.504L62.1183 39.528C64.5929 40.4667 66.6409 41.384 68.2623 42.28C69.8836 43.176 71.2703 44.4773 72.4223 46.184C73.5743 47.848 74.1503 50.024 74.1503 52.712C74.1503 56.8507 72.7423 60.072 69.9263 62.376C67.1103 64.68 63.1849 65.832 58.1503 65.832ZM117.415 65.832C110.589 65.832 105.255 63.9973 101.415 60.328C97.5753 56.6587 95.6553 51.4747 95.6553 44.776C95.6553 40.2107 96.5513 36.1787 98.3433 32.68C100.178 29.1813 102.759 26.4933 106.087 24.616C109.415 22.696 113.255 21.736 117.607 21.736C121.149 21.736 124.562 22.376 127.847 23.656L126.119 31.912C123.218 30.5893 120.402 29.928 117.671 29.928C113.789 29.928 110.717 31.208 108.455 33.768C106.194 36.2853 105.063 39.656 105.063 43.88C105.063 48.1893 106.258 51.5387 108.647 53.928C111.037 56.3173 114.343 57.512 118.567 57.512C121.341 57.512 124.029 57.064 126.631 56.168L128.039 64.04C124.925 65.2347 121.383 65.832 117.415 65.832ZM170.025 65.832C165.844 65.832 162.153 64.9147 158.953 63.08C155.753 61.2453 153.257 58.664 151.465 55.336C149.716 52.008 148.841 48.1893 148.841 43.88C148.841 39.528 149.716 35.688 151.465 32.36C153.215 29.032 155.689 26.4507 158.889 24.616C162.089 22.7813 165.801 21.864 170.025 21.864C174.207 21.864 177.897 22.7813 181.097 24.616C184.297 26.408 186.772 28.9467 188.521 32.232C190.271 35.5173 191.145 39.3147 191.145 43.624C191.145 48.0187 190.271 51.9013 188.521 55.272C186.772 58.6 184.297 61.2027 181.097 63.08C177.897 64.9147 174.207 65.832 170.025 65.832ZM170.025 57.704C173.524 57.704 176.319 56.4453 178.409 53.928C180.543 51.4107 181.609 48.0613 181.609 43.88C181.609 41.1493 181.119 38.7387 180.137 36.648C179.199 34.5147 177.833 32.8933 176.041 31.784C174.292 30.632 172.287 30.056 170.025 30.056C167.764 30.056 165.737 30.632 163.945 31.784C162.196 32.8933 160.831 34.5147 159.849 36.648C158.911 38.7387 158.441 41.1493 158.441 43.88C158.441 46.6107 158.911 49.0213 159.849 51.112C160.831 53.2027 162.196 54.824 163.945 55.976C165.695 57.128 167.721 57.704 170.025 57.704ZM213.943 22.376C215.223 22.3333 217.612 22.312 221.111 22.312C224.652 22.312 227.063 22.3333 228.343 22.376C233.207 22.5467 236.833 23.7413 239.223 25.96C241.612 28.136 242.807 31.08 242.807 34.792C242.807 37.9493 241.996 40.6373 240.375 42.856C238.796 45.032 236.577 46.4613 233.719 47.144C234.615 47.8693 235.532 48.872 236.471 50.152C237.409 51.3893 238.711 53.3307 240.375 55.976C242.124 58.7493 243.895 61.7573 245.687 65H234.935L227.703 51.56C226.935 50.152 226.231 49.2773 225.591 48.936C224.993 48.552 224.076 48.36 222.839 48.36V65H213.943V22.376ZM226.807 41.256C228.983 41.256 230.689 40.7013 231.927 39.592C233.207 38.4827 233.847 36.9893 233.847 35.112C233.847 33.4053 233.292 32.104 232.183 31.208C231.073 30.312 229.452 29.864 227.319 29.864H222.839V41.256H226.807ZM266.011 22.376H291.931V30.44H275.163V38.952H289.051V46.76H275.163V56.936H291.931V65H266.011V22.376ZM361.574 22.376H375.846C379.984 22.376 383.248 23.3787 385.638 25.384C388.07 27.3467 389.286 30.0347 389.286 33.448C389.286 37.3307 387.6 40.3173 384.23 42.408C388.71 44.2 390.95 47.3573 390.95 51.88C390.95 54.44 390.31 56.7227 389.03 58.728C387.75 60.6907 385.958 62.2267 383.654 63.336C381.392 64.4453 378.832 65 375.974 65H361.574V22.376ZM373.67 39.72C375.803 39.72 377.446 39.2293 378.598 38.248C379.792 37.2667 380.39 35.9013 380.39 34.152C380.39 30.9947 378.427 29.416 374.502 29.416H370.47V39.72H373.67ZM374.566 57.896C376.87 57.896 378.662 57.3627 379.942 56.296C381.264 55.2293 381.926 53.8 381.926 52.008C381.926 50.3867 381.371 49.128 380.262 48.232C379.152 47.336 377.552 46.888 375.462 46.888H370.47V57.896H374.566ZM414.011 22.376H423.291V56.936H438.651V65H414.011V22.376ZM461.586 22.376H470.866V65H461.586V22.376ZM505.412 30.44H493.764V22.376H526.276V30.44H514.756V65H505.412V30.44ZM547.724 58.024L568.076 30.44H548.3V22.376H579.404V29.672L559.18 56.936H579.404V65H547.724V58.024Z" fill="#FAFAF9"/>
<path d="M326.253 55.72C324.717 55.72 323.287 55.336 321.965 54.568C320.642 53.8 319.597 52.7547 318.829 51.432C318.061 50.1093 317.677 48.68 317.677 47.144C317.677 45.608 318.061 44.2 318.829 42.92C319.597 41.5973 320.642 40.552 321.965 39.784C323.287 39.016 324.717 38.632 326.253 38.632C327.746 38.632 329.154 39.016 330.477 39.784C331.799 40.552 332.845 41.5973 333.613 42.92C334.381 44.2427 334.765 45.6507 334.765 47.144C334.765 48.68 334.381 50.1093 333.613 51.432C332.845 52.7547 331.799 53.8 330.477 54.568C329.197 55.336 327.789 55.72 326.253 55.72Z" fill="#FDE047"/>
<path d="M600.226 65H625.986L613.122 42.696L600.226 65Z" fill="#16A34A"/>
</svg>
